<svg width="21" height="20" viewBox="0 0 21 20" fill="none" xmlns="http://www.w3.org/2000/svg">
<path d="M9.69808 0.859824C9.99792 -0.0604526 11.2998 -0.0604517 11.5997 0.859825L13.3508 6.23422C13.4849 6.64585 13.8687 6.92443 14.3016 6.92443H19.9623C20.9317 6.92443 21.3341 8.16546 20.5491 8.73422L15.9742 12.0489C15.6227 12.3035 15.4756 12.7558 15.6101 13.1684L17.3587 18.5351C17.6587 19.4559 16.6054 20.2229 15.8211 19.6547L11.2356 16.3323C10.8856 16.0787 10.4122 16.0787 10.0622 16.3323L5.47661 19.6547C4.69236 20.2229 3.63907 19.4559 3.93909 18.5351L5.68766 13.1684C5.82211 12.7558 5.67503 12.3035 5.32358 12.0489L0.748702 8.73422C-0.0363045 8.16546 0.366026 6.92443 1.33542 6.92443H6.99618C7.4291 6.92443 7.81286 6.64585 7.94698 6.23422L9.69808 0.859824Z" fill="#070707"/>
</svg>
